<svg xmlns="http://www.w3.org/2000/svg" viewBox="0 0 16 16" fill="#4b525a" id="Soccer-Ball-Light--Streamline-Phosphor" height="16" width="16">
  <desc>
    Soccer Ball Light Streamline Icon: https://streamlinehq.com
  </desc>
  <path d="M8 0.16C1.9647625 0.15973125 -1.8072 6.69289375 1.2101875 11.91969375c3.01738125 5.22680625 10.561425 5.22714375 13.579275 0.0006125C15.47768125 10.7284 15.84 9.376325 15.84 8 15.83491875 3.67219375 12.32780625 0.16508125 8 0.16Zm5.96993125 11.33110625h-2.75015l-0.805525 -1.1083625 1.02150625 -2.976125 1.30666875 -0.4235125 2.14754375 1.64716875c-0.0918 1.009825 -0.406 1.98680625 -0.92004375 2.86083125Zm-9.1897125 0H2.03006875c-0.51350625 -0.87415625 -0.82718125 -1.85113125 -0.91850625 -2.86083125l2.14754375 -1.64716875 1.30666875 0.4235125 1.01996875 2.976125ZM2.08156875 4.41973125l0.5564875 1.87621875 -1.53725625 1.179075c0.08141875 -1.08151875 0.4174875 -2.12845 0.98076875 -3.05529375Zm4.34735625 5.5787 -0.95386875 -2.77781875L8 5.48505l2.52494375 1.7355625 -0.95386875 2.77781875Zm6.93225 -3.70248125 0.55725625 -1.87621875c0.5630125 0.9269125 0.89881875 1.9738375 0.98 3.05529375Zm-0.1275875 -2.8147125 -0.77555 2.62409375 -1.3066625 0.42505625 -2.6902 -1.84470625V3.32366875l2.3750625 -1.6325625c0.91975625 0.415325 1.737875 1.02623125 2.39734375 1.79013125Zm-3.47189375 -2.16829375L8 2.521225 6.23830625 1.31294375c1.154875 -0.30334375 2.3685125 -0.30334375 3.5233875 0Zm-4.5971625 0.37739375 2.37429375 1.63333125v1.3589375L4.848625 6.52730625l-1.3066625 -0.42505 -0.77555 -2.62101875c0.6597875 -0.7640875 1.4781375 -1.37523125 2.39811875 -1.7909ZM2.67725625 12.41345625h2.0122625l0.70636875 1.99843125c-1.0566875 -0.43256875 -1.99044375 -1.1189625 -2.71863125 -1.99843125Zm3.8185375 2.3389375 -0.964625 -2.72555625 0.80398125 -1.10605625h3.3297l0.80398125 1.10605625 -0.964625 2.72555625c-0.9907 0.22034375 -2.0177125 0.22034375 -3.0084125 0Zm4.10831875 -0.34435 0.70636875 -1.99843125h2.0122625c-0.7281875 0.87946875 -1.66194375 1.5658625 -2.71863125 1.99843125Z" stroke-width="0.0625"></path>
</svg>